<svg xmlns="http://www.w3.org/2000/svg" xmlns:xlink="http://www.w3.org/1999/xlink" width="1000" zoomAndPan="magnify" viewBox="0 0 750 749.999995" height="1000" preserveAspectRatio="xMidYMid meet" version="1.0"><defs><g/><clipPath id="e490a70ad1"><path d="M 0.441406 111 L 570 111 L 570 623.320312 L 0.441406 623.320312 Z M 0.441406 111 " clip-rule="nonzero"/></clipPath><clipPath id="a7a0aadcfc"><rect x="0" width="570" y="0" height="513"/></clipPath><clipPath id="87d03773c5"><path d="M 148 7 L 693.078125 7 L 693.078125 463 L 148 463 Z M 148 7 " clip-rule="nonzero"/></clipPath><clipPath id="5ce041c181"><rect x="0" width="546" y="0" height="456"/></clipPath><clipPath id="51be0fb7fd"><path d="M 190.582031 128.667969 L 462.378906 128.667969 L 462.378906 400.464844 L 190.582031 400.464844 Z M 190.582031 128.667969 " clip-rule="nonzero"/></clipPath><clipPath id="6bc263cbc2"><path d="M 326.480469 128.667969 C 251.425781 128.667969 190.582031 189.511719 190.582031 264.566406 C 190.582031 339.621094 251.425781 400.464844 326.480469 400.464844 C 401.535156 400.464844 462.378906 339.621094 462.378906 264.566406 C 462.378906 189.511719 401.535156 128.667969 326.480469 128.667969 Z M 326.480469 128.667969 " clip-rule="nonzero"/></clipPath><clipPath id="26b1548c6c"><path d="M 0.582031 0.667969 L 272.378906 0.667969 L 272.378906 272.464844 L 0.582031 272.464844 Z M 0.582031 0.667969 " clip-rule="nonzero"/></clipPath><clipPath id="5516a55054"><path d="M 136.480469 0.667969 C 61.425781 0.667969 0.582031 61.511719 0.582031 136.566406 C 0.582031 211.621094 61.425781 272.464844 136.480469 272.464844 C 211.535156 272.464844 272.378906 211.621094 272.378906 136.566406 C 272.378906 61.511719 211.535156 0.667969 136.480469 0.667969 Z M 136.480469 0.667969 " clip-rule="nonzero"/></clipPath><clipPath id="5b7f08d428"><rect x="0" width="273" y="0" height="273"/></clipPath><clipPath id="ef8d54b23b"><path d="M 242 8 L 432 8 L 432 159 L 242 159 Z M 242 8 " clip-rule="nonzero"/></clipPath><clipPath id="ab20a5cc84"><path d="M 245.375 0.808594 L 433.972656 17.078125 L 421.53125 161.300781 L 232.933594 145.03125 Z M 245.375 0.808594 " clip-rule="nonzero"/></clipPath><clipPath id="44e952b198"><path d="M 245.375 0.808594 L 433.972656 17.078125 L 421.53125 161.300781 L 232.933594 145.03125 Z M 245.375 0.808594 " clip-rule="nonzero"/></clipPath><clipPath id="9b200f0ad5"><rect x="0" width="694" y="0" height="624"/></clipPath></defs><g transform="matrix(1, 0, 0, 1, 7, 65)"><g clip-path="url(#9b200f0ad5)"><g clip-path="url(#e490a70ad1)"><g transform="matrix(1, 0, 0, 1, -0.000000000000001776, 111)"><g clip-path="url(#a7a0aadcfc)"><g fill="#fec832" fill-opacity="1"><g transform="translate(521.208776, 318.087654)"><g><path d="M -153.078125 -78.234375 L -372.03125 -48.765625 C -382.4375 -47.453125 -391.316406 -48.535156 -398.671875 -52.015625 C -406.023438 -55.503906 -411.316406 -60.351562 -414.546875 -66.5625 C -418.003906 -73.226562 -418.828125 -80.164062 -417.015625 -87.375 C -415.203125 -94.59375 -410.273438 -100.289062 -402.234375 -104.46875 C -397.859375 -106.738281 -392.84375 -108.320312 -387.1875 -109.21875 L -158.671875 -139.6875 C -156.472656 -139.957031 -154.453125 -140.421875 -152.609375 -141.078125 C -150.765625 -141.742188 -149.039062 -142.492188 -147.4375 -143.328125 C -143.070312 -145.585938 -140.335938 -148.753906 -139.234375 -152.828125 C -138.128906 -156.898438 -138.828125 -161.351562 -141.328125 -166.1875 C -146.941406 -177 -158.816406 -184.414062 -176.953125 -188.4375 C -195.097656 -192.457031 -217.410156 -192.710938 -243.890625 -189.203125 C -250.953125 -188.160156 -257.023438 -189.171875 -262.109375 -192.234375 C -267.191406 -195.296875 -270.925781 -199.125 -273.3125 -203.71875 C -276.0625 -209.007812 -276.894531 -214.410156 -275.8125 -219.921875 C -274.738281 -225.441406 -271.328125 -229.695312 -265.578125 -232.6875 C -263.035156 -234 -260.257812 -234.851562 -257.25 -235.25 C -232.976562 -239.070312 -210.191406 -240.15625 -188.890625 -238.5 C -167.597656 -236.84375 -148.921875 -231.640625 -132.859375 -222.890625 C -116.804688 -214.148438 -104.304688 -201.15625 -95.359375 -183.90625 C -88.796875 -171.25 -85.414062 -158.40625 -85.21875 -145.375 C -85.03125 -132.34375 -88.335938 -120.5625 -95.140625 -110.03125 C -83.265625 -106.257812 -71.328125 -100.257812 -59.328125 -92.03125 C -47.328125 -83.8125 -38.164062 -73.609375 -31.84375 -61.421875 C -25.882812 -49.921875 -22.90625 -38.257812 -22.90625 -26.4375 C -22.90625 -14.613281 -25.84375 -3.675781 -31.71875 6.375 C -37.59375 16.425781 -46.28125 24.4375 -57.78125 30.40625 C -66.0625 34.695312 -75.125 37.492188 -84.96875 38.796875 L -311.015625 68.890625 C -321.421875 70.203125 -330.269531 69.171875 -337.5625 65.796875 C -344.863281 62.429688 -350.066406 57.757812 -353.171875 51.78125 C -356.390625 45.570312 -357.117188 38.945312 -355.359375 31.90625 C -353.609375 24.863281 -348.710938 19.257812 -340.671875 15.09375 C -336.066406 12.695312 -330.9375 11.054688 -325.28125 10.171875 L -105.109375 -19.484375 C -100.253906 -20.253906 -96.101562 -21.535156 -92.65625 -23.328125 C -87.363281 -26.066406 -83.796875 -30.023438 -81.953125 -35.203125 C -80.117188 -40.390625 -80.632812 -45.742188 -83.5 -51.265625 C -86.84375 -57.710938 -92.222656 -63.171875 -99.640625 -67.640625 C -107.054688 -72.109375 -115.503906 -75.316406 -124.984375 -77.265625 C -134.460938 -79.210938 -143.828125 -79.535156 -153.078125 -78.234375 Z M -153.078125 -78.234375 "/></g></g></g></g></g></g><g clip-path="url(#87d03773c5)"><g transform="matrix(1, 0, 0, 1, 148, 7)"><g clip-path="url(#5ce041c181)"><g fill="#fec832" fill-opacity="1"><g transform="translate(496.26428, 278.432614)"><g><path d="M -99.984375 -106.078125 C -79.617188 -104.691406 -63.988281 -99.816406 -53.09375 -91.453125 C -42.195312 -83.097656 -34.34375 -73.753906 -29.53125 -63.421875 C -25.050781 -53.796875 -22.640625 -43.554688 -22.296875 -32.703125 C -21.960938 -21.847656 -24.1875 -11.734375 -28.96875 -2.359375 C -33.75 7.003906 -41.660156 14.253906 -52.703125 19.390625 C -55.054688 20.484375 -57.578125 21.515625 -60.265625 22.484375 C -62.960938 23.460938 -65.890625 24.253906 -69.046875 24.859375 L -303.65625 77.09375 C -313.695312 79.476562 -322.175781 78.925781 -329.09375 75.4375 C -336.007812 71.945312 -340.945312 67.023438 -343.90625 60.671875 C -347.300781 53.398438 -347.742188 45.535156 -345.234375 37.078125 C -342.734375 28.617188 -336.550781 22.09375 -326.6875 17.5 C -323.875 16.1875 -320.660156 15.117188 -317.046875 14.296875 L -91.40625 -33.3125 C -88.25 -33.925781 -85.851562 -34.613281 -84.21875 -35.375 C -80.457031 -37.125 -78.835938 -39.171875 -79.359375 -41.515625 C -79.617188 -44.535156 -81.957031 -46.800781 -86.375 -48.3125 C -90.800781 -49.832031 -95.84375 -50.84375 -101.5 -51.34375 C -120.707031 -52.6875 -139.890625 -53.972656 -159.046875 -55.203125 C -178.203125 -56.429688 -198.367188 -57.6875 -219.546875 -58.96875 C -240.722656 -60.257812 -263.957031 -61.660156 -289.25 -63.171875 C -314.539062 -64.691406 -342.75 -66.347656 -373.875 -68.140625 C -384.414062 -68.085938 -393.046875 -70.210938 -399.765625 -74.515625 C -406.492188 -78.816406 -411.171875 -83.785156 -413.796875 -89.421875 C -416.648438 -95.535156 -417.175781 -101.578125 -415.375 -107.546875 C -413.582031 -113.523438 -409.160156 -118.160156 -402.109375 -121.453125 C -399.054688 -122.867188 -395.640625 -123.957031 -391.859375 -124.71875 C -388.078125 -125.476562 -383.640625 -125.613281 -378.546875 -125.125 Z M -99.984375 -106.078125 "/></g></g></g></g></g></g><g clip-path="url(#51be0fb7fd)"><g clip-path="url(#6bc263cbc2)"><g transform="matrix(1, 0, 0, 1, 190, 128)"><g clip-path="url(#5b7f08d428)"><g clip-path="url(#26b1548c6c)"><g clip-path="url(#5516a55054)"><path fill="#5200ff" d="M 0.582031 0.667969 L 272.378906 0.667969 L 272.378906 272.464844 L 0.582031 272.464844 Z M 0.582031 0.667969 " fill-opacity="1" fill-rule="nonzero"/></g></g></g></g></g></g><g clip-path="url(#ef8d54b23b)"><g clip-path="url(#ab20a5cc84)"><g clip-path="url(#44e952b198)"><path fill="#fdfdfd" d="M 264.027344 144.507812 C 267.316406 144.132812 273.890625 143.320312 280.527344 142.804688 C 287.164062 142.289062 293.871094 142.066406 300.644531 142.136719 C 307.421875 142.207031 314.269531 142.5625 319.398438 143.035156 C 324.527344 143.507812 327.914062 143.894531 331.195312 144.335938 C 334.480469 144.773438 337.660156 145.257812 340.734375 145.78125 C 343.8125 146.308594 346.785156 146.871094 350.40625 147.601562 C 354.027344 148.328125 358.375 149.261719 362.847656 150.292969 C 367.324219 151.324219 371.929688 152.453125 376.660156 153.695312 C 381.390625 154.941406 386.25 156.300781 390.011719 157.289062 C 393.777344 158.277344 395.480469 158.582031 397.042969 158.789062 C 398.605469 159 400.183594 159.089844 402.421875 158.824219 C 404.660156 158.554688 409.171875 156.054688 411 148.054688 C 412.832031 140.058594 413.382812 132.046875 414.972656 122.449219 C 416.5625 112.851562 419.015625 101.675781 422.433594 88.957031 C 425.851562 76.242188 430.296875 62.027344 431.109375 48.996094 C 431.917969 35.96875 425.210938 34.664062 422.996094 35.699219 C 420.78125 36.738281 419.753906 37.617188 418.855469 38.539062 C 417.957031 39.460938 417.03125 40.515625 415.609375 42.210938 C 414.1875 43.910156 411.660156 46.980469 408.242188 51.171875 C 404.820312 55.363281 400.488281 60.683594 395.269531 67.15625 C 390.050781 73.632812 383.875 81.203125 380.277344 85.644531 C 376.683594 90.089844 376.347656 90.460938 376.238281 90.578125 C 376.132812 90.695312 376.375 90.582031 377.136719 90.417969 C 377.898438 90.253906 379.199219 89.960938 379.625 90.074219 C 380.050781 90.183594 379.921875 90.046875 379.28125 89.328125 C 378.636719 88.613281 377.683594 87.324219 376.53125 85.511719 C 375.378906 83.699219 374.074219 81.390625 372.9375 79.199219 C 371.800781 77.011719 370.46875 74.074219 368.390625 69.242188 C 366.316406 64.414062 363.601562 57.734375 360.226562 49.242188 C 356.851562 40.75 352.8125 30.453125 350.285156 24.035156 C 347.761719 17.613281 347.1875 16.449219 346.472656 15.289062 C 345.761719 14.128906 344.804688 12.929688 343.363281 11.695312 C 341.921875 10.460938 339.71875 9.382812 337.714844 8.992188 C 335.714844 8.597656 331.589844 9.335938 329.273438 10.9375 C 326.957031 12.539062 325.75 14.03125 324.914062 15.40625 C 324.078125 16.785156 323.398438 18.164062 317.421875 33.523438 C 311.449219 48.882812 300.988281 78.136719 300.613281 79.105469 C 300.234375 80.074219 299.886719 80.882812 299.648438 81.398438 C 299.410156 81.914062 299.328125 82.074219 299.609375 81.746094 C 299.886719 81.417969 309.074219 78.410156 308.839844 78.109375 C 308.609375 77.808594 305.160156 75.414062 299.828125 71.191406 C 294.496094 66.96875 287.453125 61.042969 278.765625 53.46875 C 270.078125 45.894531 259.6875 36.671875 258.464844 35.777344 C 257.242188 34.878906 255.875 34.179688 253.929688 33.714844 C 251.984375 33.253906 249.425781 33.464844 247.082031 34.703125 C 244.738281 35.9375 241.769531 42.566406 242.519531 48.65625 C 243.265625 54.746094 244.90625 62.03125 247.382812 70.648438 C 249.855469 79.265625 253.1875 89.261719 256.484375 97.296875 C 259.785156 105.328125 269.683594 102.292969 268 96.800781 C 268 96.800781 266.175781 85.410156 264.058594 75.996094 C 261.945312 66.582031 260.523438 58.816406 259.839844 52.785156 C 259.160156 46.75 259.15625 42.558594 257.097656 46.183594 C 255.039062 49.808594 253.035156 50.550781 251.335938 50.527344 C 249.640625 50.5 248.679688 50.179688 248.28125 49.976562 C 247.886719 49.773438 247.519531 49.476562 256.757812 58.898438 C 266 68.316406 273.882812 76.011719 280.386719 82.015625 C 286.894531 88.019531 292.097656 92.378906 296.433594 95.332031 C 300.769531 98.28125 305.90625 99.941406 311.410156 97.445312 C 316.917969 94.945312 317.789062 93.691406 318.476562 92.476562 C 319.167969 91.265625 319.785156 90.007812 320.378906 88.644531 C 320.976562 87.277344 321.648438 85.589844 331.828125 56.21875 C 342.007812 26.851562 342.179688 26.351562 342.328125 25.96875 C 342.476562 25.582031 342.394531 25.660156 341.683594 26.34375 C 340.976562 27.027344 338.886719 28.171875 336.304688 28.378906 C 333.722656 28.585938 332.886719 28.304688 331.675781 27.589844 C 330.46875 26.878906 329.964844 26.359375 329.84375 26.175781 C 329.722656 25.988281 329.828125 26.105469 330.023438 26.425781 C 330.21875 26.742188 335.476562 37.910156 339.957031 47.375 C 344.4375 56.839844 348.144531 64.570312 351.058594 70.585938 C 353.972656 76.601562 356.128906 80.921875 357.589844 83.597656 C 359.050781 86.277344 360.753906 89.128906 362.398438 91.644531 C 364.042969 94.160156 365.640625 96.316406 367.257812 98.148438 C 368.871094 99.980469 370.625 101.527344 372.554688 102.632812 C 374.480469 103.742188 376.351562 104.316406 378.464844 104.050781 C 380.578125 103.785156 382.242188 103.191406 383.539062 102.398438 C 384.835938 101.605469 385.910156 100.699219 386.890625 99.699219 C 387.871094 98.695312 395.019531 90.664062 401.191406 83.75 C 407.359375 76.835938 412.597656 71.054688 416.847656 66.363281 C 421.101562 61.671875 424.40625 58.117188 426.734375 55.664062 C 429.0625 53.210938 429.960938 52.269531 430.578125 51.675781 C 431.195312 51.078125 431.515625 50.816406 431.1875 51.046875 C 430.859375 51.28125 428.511719 52.125 423.664062 46.328125 C 418.820312 40.53125 412.554688 55.550781 407.363281 69.496094 C 402.167969 83.441406 398.195312 96.1875 395.527344 107.769531 C 392.859375 119.351562 391.441406 129.785156 391.234375 138.769531 C 391.027344 147.757812 394.546875 139.796875 397.324219 138.539062 C 400.101562 137.28125 400.558594 137.269531 400.152344 137.246094 C 399.746094 137.222656 398.792969 137.105469 397.691406 136.945312 C 396.589844 136.78125 391.621094 135.589844 386.53125 134.453125 C 381.441406 133.3125 376.472656 132.285156 371.625 131.375 C 366.777344 130.46875 362.050781 129.683594 357.460938 129.035156 C 352.875 128.382812 349.71875 127.984375 346.445312 127.640625 C 343.175781 127.296875 339.816406 127.003906 336.375 126.765625 C 332.933594 126.527344 329.40625 126.328125 325.730469 126.175781 C 322.054688 126.023438 314.691406 126.039062 307.40625 126.34375 C 300.117188 126.652344 292.945312 127.292969 285.886719 128.25 C 278.828125 129.207031 271.890625 130.496094 268.445312 131.398438 C 261.667969 132.980469 267.351562 143.824219 264.027344 144.507812 Z M 264.027344 144.507812 " fill-opacity="1" fill-rule="nonzero"/></g></g></g></g></g></svg>